<svg width="170" height="170" viewBox="0 0 850 850" xmlns="http://www.w3.org/2000/svg"><path d="M406.17 0h37.5c14.53.63 28.92 2.79 43.37 4.36 13.24 1.29 26.11 4.77 39.04 7.75 10.96 2.7 22.03 5.14 32.61 9.18 7.23 2.77 14.61 5.17 21.81 8.06 16.95 5.68 32.53 14.56 48.44 22.55 10.99 5.38 21.03 12.4 31.26 19.05 9.23 6.31 18.65 12.33 27.3 19.44 14.99 12.96 30.77 25.17 43.91 40.11 9.66 10.36 19.5 20.59 28.03 31.93 10.75 14.84 22.22 29.27 30.96 45.43 8.37 14.48 16.84 28.99 23.07 44.55 6.53 15.24 13.15 30.52 17.52 46.55 3.96 13.26 7.81 26.57 10.5 40.16 3.42 19.84 7.11 39.74 7.69 59.91.45 6.4.6 12.81.82 19.22v19.69c-1.2 19.77-2.23 39.64-6.1 59.12-3.02 16.52-6.19 33.09-11.44 49.08-4.48 14.57-9.13 29.15-15.3 43.11-6.78 15.25-13.53 30.57-22.06 44.94-7.86 13.25-15.75 26.53-24.87 38.96-9.91 13.05-19.84 26.12-30.97 38.16-11.07 11.56-22.2 23.11-34.27 33.64-9.77 8.24-19.8 16.18-29.96 23.95-11.86 8.68-24.39 16.41-36.99 23.96-13.37 8.23-27.69 14.76-41.94 21.28-15.2 7.22-31.24 12.42-47.25 17.51-14.98 5.05-30.52 8.18-46.02 11.22-21.06 4.39-42.59 5.79-64.02 7.13h-27.65c-21.15-1.35-42.42-2.67-63.22-6.98-21.72-3.83-43.07-9.53-63.83-16.97-18.74-5.96-36.42-14.67-54.1-23.15-15.16-7.76-29.53-16.94-43.85-26.13-17.97-12.4-35.07-26.12-51.04-41.02-1.87-1.47-2.97-4.09-1.84-6.35 1.23-3.03 5.6-3.97 7.91-1.6 13.02 11.77 26.18 23.51 40.75 33.37 10.73 7.7 21.56 15.28 33.03 21.84 14.63 7.97 29.16 16.21 44.55 22.65 16.46 6.57 32.85 13.51 50.06 17.92 13.73 3.77 27.5 7.5 41.56 9.88 18.84 2.77 37.72 5.9 56.81 5.94 11.35.7 22.74.75 34.09 0 16.91-.07 33.7-2.42 50.38-5.03 18.26-2.32 35.95-7.56 53.68-12.32 15.69-4.6 30.79-10.92 45.91-17.06 15.05-6.35 29.23-14.49 43.55-22.29 14.04-8 26.99-17.69 40.2-26.96 10.8-8.06 20.84-17.05 30.79-26.12 9.2-8.12 17.84-16.88 25.86-26.16 10.46-11.63 20.82-23.43 29.55-36.45 9.33-13.24 18.66-26.57 26.01-41.05 7.77-14.33 15.46-28.78 21.14-44.09 5.08-12.74 10.1-25.52 13.82-38.72 4.25-16.3 8.88-32.54 11.36-49.23 2.42-17.89 5.23-35.81 5.24-53.9 1.1-20.68.09-41.43-2.36-61.98-1.57-19.7-6.12-38.98-10.59-58.18a440.908 440.908 0 0 0-22.24-63.38c-7.98-16.92-16.08-33.86-26.32-49.55-8.76-13.99-17.9-27.77-28.49-40.46-11.06-13.81-22.77-27.14-35.68-39.26-13.79-13.67-28.73-26.14-44.44-37.53-15.28-11.61-31.84-21.37-48.59-30.68-38.75-20.61-80.71-35.34-124-42.76-50.75-8.88-103.16-8.22-153.68 1.86-4.83.78-9.52 2.35-14.43 2.6.8-3.54-4.09-6.43-1.1-9.57 11.38-2.42 22.64-5.55 34.27-6.61C376.63 2.85 391.33.67 406.17 0zm-95.05 15.21c3.8-1.3 7.64 3.17 5.89 6.75-1.01 2.64-4.05 3.08-6.41 3.8-5.31 1.41-10.5 3.22-15.77 4.77-2.96 1.01-6.34-1.47-6.34-4.57-.21-2.46 1.72-4.61 4.04-5.16 6.16-1.97 12.34-3.92 18.59-5.59zm-47.74 16.36c3.47-1.95 8.05 1.4 7.23 5.28-.27 2.29-2.34 3.66-4.34 4.37-5.62 2.26-11.11 4.85-16.66 7.27-2.17 1.05-5.05.22-6.25-1.89-1.64-2.37-.58-5.94 2.03-7.1 5.9-2.85 11.93-5.43 17.99-7.93zm-45.89 22.19c1.83-1.18 4.28-1.91 6.26-.62 3.2 1.73 3.22 6.91-.05 8.57-5.58 3.26-11.19 6.48-16.71 9.83-2.26 1.66-5.7.92-7.11-1.47-1.42-2.16-.73-5.38 1.5-6.73 5.27-3.35 10.67-6.5 16.11-9.58zm-40.1 25.69c3.45-1.93 8.04 1.67 7 5.49-.36 2.36-2.66 3.49-4.34 4.84-4.54 3.19-8.82 6.72-13.27 10.03-2.65 2.32-7.26.62-7.9-2.8-.62-2.26.75-4.44 2.56-5.67 5.24-4.06 10.41-8.24 15.95-11.89zm-38 31.04c3.07-1.36 6.84 1.2 6.83 4.52.17 2.78-2.37 4.43-4.1 6.17-4.25 3.75-8.07 7.96-12.31 11.72-2.65 2.17-7.07.4-7.71-2.91-.92-3.66 2.69-5.83 4.79-8.13 4.15-3.8 7.87-8.17 12.5-11.37zm-35.67 36.24c2.79-2.55 7.71-.47 8.07 3.2.46 2.99-2.2 4.96-3.81 7.06-3.85 4.21-6.97 9.06-11 13.09-3.91 2.87-9.51-2.07-7.23-6.29 4.32-5.94 9.03-11.63 13.97-17.06zm-28.63 38.42c4.03-1.77 8.43 3.22 6.12 6.97-3.86 5.92-7.56 11.98-11.53 17.83-3.28 3.87-10.13-.24-8.3-4.96 2.71-5.3 6.28-10.12 9.44-15.16 1.22-1.7 2.16-3.91 4.27-4.68zm-26.73 43.36c3.51-3.39 9.85.86 7.94 5.38-2.27 5.1-5.03 9.97-7.27 15.08-1.14 2.3-2.03 5.4-4.92 6-3.79 1.06-7.55-3.33-5.7-6.89 3.16-6.58 5.9-13.51 9.95-19.57zm-19.24 44.6c3.29-2.09 7.9.95 7.45 4.78-1.55 5.45-3.86 10.66-5.51 16.09-.92 2.48-1.3 5.82-4.19 6.82-3.56 1.61-7.9-2.25-6.56-5.96 1.68-5.71 3.77-11.3 5.75-16.91.7-1.76 1.22-3.9 3.06-4.82zm-14.79 47.34c2.35-1.63 5.92-.63 7.14 1.93 1.12 2.05.11 4.37-.27 6.48-1.45 5.54-2.38 11.21-3.75 16.77-1.03 3.68-6.44 4.49-8.62 1.41-1.48-1.74-1-4.13-.55-6.16 1.19-5.67 2.37-11.35 3.8-16.97.28-1.39 1.01-2.72 2.25-3.46zm-7.84 48.09c3.35-1.36 7.28 1.89 6.58 5.44-.79 6.65-1.3 13.33-2.03 19.98-.7 5.23-9.13 5.13-9.75-.12.06-6.62 1.06-13.22 1.72-19.8.02-2.3 1.14-4.78 3.48-5.5zM0 421.65c.75-3.27 4.71-5.3 7.63-3.35 3.07 1.78 2.26 5.72 2.41 8.68-.24 5.71.66 11.45.01 17.13-1.4 4.28-8.26 4.19-9.44-.22-.61-4.65-.37-9.36-.61-14.03v-8.21zm5.36 45.79c2.81-1.57 6.71.39 7.13 3.57.86 6.31 1.56 12.65 2.58 18.94.71 2.52-.63 5.45-3.18 6.28-2.85 1.09-6.28-1.03-6.57-4.06-1.05-6.4-1.9-12.84-2.62-19.28-.43-2.17.67-4.49 2.66-5.45zm7.94 48.91c2.91-2.01 7.22.1 7.62 3.56 1.48 6.74 3.66 13.33 4.99 20.1-.07 4.67-6.9 6.48-9.23 2.41-2.35-6.58-3.79-13.48-5.48-20.25-.73-2.15.18-4.65 2.1-5.82zm14.19 47.26c2.47-1.54 6.14-.29 7.09 2.48 2.29 6.01 4.56 12.03 7.01 17.98 1.17 2.26.38 5.31-1.86 6.59-2.42 1.51-5.98.46-7.08-2.2-2.59-6.1-4.97-12.28-7.24-18.51-1.05-2.26-.09-5.14 2.08-6.34zm18.89 45.84c2.33-2.09 6.42-1.16 7.63 1.71 3 5.81 6.1 11.56 9.2 17.31 1.83 3.04-.69 7.32-4.21 7.27-2.1.18-3.93-1.25-4.82-3.05-3.12-5.55-6.13-11.17-8.97-16.88-1.27-2.05-.71-4.89 1.17-6.36zm25.98 42.02c2.18-1.03 4.87-.07 6.11 1.94 3.61 5.41 7.39 10.7 11.13 16.03 1.81 2.32.85 6.01-1.76 7.29-2.31 1.3-5.34.27-6.66-1.95-3.79-5.22-7.54-10.48-11.01-15.92-1.85-2.43-.69-6.37 2.19-7.39zm28.96 39.84c2.26-1.46 5.3-.5 6.78 1.61 4.22 5.12 8.9 9.86 13.11 14.99 2.88 4.12-2.76 9.67-6.86 6.78-5.2-4.86-9.64-10.51-14.32-15.88-2.06-2.21-1.32-6.08 1.29-7.5z" fill="#c6c6c6"/><path fill="#b5b5b5" opacity=".19" d="M323.23 12.33c1.45-.44 2.89-.94 4.38-1.2-2.99 3.14 1.9 6.03 1.1 9.57-1.09-.05-2.18-.11-3.26-.19.05-.69.14-2.06.18-2.75-.69-.85-1.38-1.71-2.06-2.56-.11-.96-.22-1.92-.34-2.87z"/></svg>