<svg width="46" height="58" viewBox="0 0 460 580" xmlns="http://www.w3.org/2000/svg"><path d="M449.58.22c3.25.7 6.48 1.47 9.73 2.18-1.84 8.35-3.87 16.66-6.01 24.94-3.17-2.26-5.88-5.11-7.9-8.43.98-6.25 2.89-12.45 4.18-18.69zM428.6 76.4c3.15 1.02 6.29 2.06 9.44 3.08-4.06 12.7-8.56 25.25-13.3 37.71-3.12-1.12-6.19-2.38-9.31-3.5 4.6-12.35 9.04-24.77 13.17-37.29zm-44.77 109.67c5.8-11.82 11.34-23.78 16.65-35.83 3.01 1.31 6.01 2.66 9.04 3.93-5.03 12.2-10.86 24.16-16.62 36.07l-.4.19c-2.85-1.54-5.81-2.86-8.67-4.36zm-38.33 69.12c6.93-11.21 13.53-22.62 20.01-34.1 2.87 1.66 5.82 3.18 8.67 4.87a791.68 791.68 0 0 1-20.19 34.48c-2.84-1.74-5.67-3.49-8.49-5.25zm-44.63 65.23c7.84-10.58 15.61-21.23 23.07-32.09 2.73 1.88 5.49 3.74 8.21 5.64-7.5 11.01-15.32 21.81-23.36 32.44-2.67-1.96-5.26-4.02-7.92-5.99zm-50.64 60.66c8.86-9.74 17.56-19.63 26-29.73 2.58 2.11 5.14 4.25 7.68 6.4-8.56 10.2-17.28 20.27-26.31 30.07-2.49-2.21-4.92-4.49-7.37-6.74zm-56.08 55.64c9.75-8.85 19.3-17.9 28.68-27.13 2.35 2.34 4.69 4.7 7.02 7.07-9.43 9.39-19.12 18.52-28.99 27.45-2.33-2.38-4.5-4.91-6.71-7.39zm-61.11 50.12c10.54-7.88 20.9-16 31.12-24.3 2.14 2.55 4.25 5.12 6.32 7.72-10.34 8.39-20.77 16.68-31.49 24.6-1.99-2.67-3.99-5.33-5.95-8.02zm-65.56 44.09c11.27-6.79 22.28-14.02 33.28-21.25 1.87 2.75 3.73 5.51 5.56 8.29a826.819 826.819 0 0 1-33.67 21.5c-1.76-2.82-3.46-5.68-5.17-8.54zm-43.02 24.33c2.91-1.53 5.78-3.14 8.71-4.65 1.6 2.92 3.23 5.82 4.74 8.8-3.75 2.01-7.5 4.02-11.28 5.98-.48-3.43-1.24-6.8-2.17-10.13z" fill="#fff"/><path fill="#e5e5e5" opacity=".9" d="M445.15 18.54l.25.37c2.02 3.32 4.73 6.17 7.9 8.43-.34 1.69-.9 3.31-1.3 4.98-2.65-2.73-5.44-5.32-8.25-7.89.55-1.94.99-3.91 1.4-5.89z"/><path fill="#b3b3b3" opacity=".71" d="M443.75 24.43c2.81 2.57 5.6 5.16 8.25 7.89-.07 1.49-.97 2.86-1.12 4.35-2.86-2.35-5.37-5.11-8.32-7.36.35-1.64.67-3.29 1.19-4.88z"/><path fill="#818181" opacity=".51" d="M439.98 38.66c.75-3.13 1.6-6.31 2.58-9.35 2.95 2.25 5.46 5.01 8.32 7.36-.21 1.49-.89 2.9-1.24 4.36-3.27-.57-6.42-1.67-9.66-2.37z"/><path fill="#ebebeb" opacity=".92" d="M21.45 556.81c1-.52 2.01-1.04 3.01-1.55.93 3.33 1.69 6.7 2.17 10.13-.72.38-2.16 1.15-2.88 1.54-1.88-3.05-2.8-6.55-2.3-10.12z"/><path fill="#c6c6c6" opacity=".78" d="M15.66 559.85c2-.88 3.79-2.17 5.79-3.04-.5 3.57.42 7.07 2.3 10.12-1.96 1.13-4.11 1.88-6.06 3.04-.16-3.46-.99-6.85-2.03-10.12z"/><path fill="#7e7e7e" opacity=".49" d="M12.19 561.67c1.16-.61 2.25-1.33 3.47-1.82 1.04 3.27 1.87 6.66 2.03 10.12-.94.55-1.92 1.02-2.89 1.55-.65-3.34-1.26-6.72-2.61-9.85z"/><path fill="#222" opacity=".13" d="M7.03 564.03c1.21-.57 2.39-1.18 3.61-1.7.46 3.47 1.07 6.94 2.04 10.31-3.39 1.57-6.69 3.29-10.05 4.92-1.2-.9-1.42-2.57-2.12-3.8 2.75-1.21 6.01.77 8.54-.71 1.94-3.09-.5-6.36-2.02-9.02z"/><path fill="#4b4b4b" opacity=".3" d="M10.64 562.33l1.55-.66c1.35 3.13 1.96 6.51 2.61 9.85l-2.12 1.12c-.97-3.37-1.58-6.84-2.04-10.31z"/></svg>