<svg width="25" height="70" viewBox="0 0 250 700" xmlns="http://www.w3.org/2000/svg"><path d="M3.73 7.89c2.42-2.29 4.83-4.58 7.24-6.88 9.16 9.68 18.15 19.53 26.86 29.62-2.51 2.18-5.02 4.36-7.54 6.53C21.61 27.25 12.8 17.45 3.73 7.89zm51.76 59.76c2.6-2.08 5.22-4.13 7.83-6.2 8.2 10.51 16.3 21.1 24.05 31.94-2.7 1.95-5.4 3.9-8.11 5.83a949.985 949.985 0 0 0-23.77-31.57zm46.07 64.22c2.79-1.82 5.58-3.63 8.38-5.44 7.25 11.19 14.28 22.52 21.01 34.04-2.87 1.66-5.74 3.35-8.6 5.04a944.014 944.014 0 0 0-20.79-33.64zm39.99 68.2c2.95-1.57 5.9-3.12 8.85-4.66a851.146 851.146 0 0 1 17.8 35.8c-3.01 1.42-6.03 2.83-9.03 4.25-5.64-11.91-11.49-23.73-17.62-35.39zm33.55 71.56c3.08-1.27 6.16-2.55 9.24-3.81 5.09 12.32 9.87 24.77 14.41 37.3-3.13 1.12-6.26 2.25-9.39 3.39a951.46 951.46 0 0 0-14.26-36.88zM201.88 346c3.18-.99 6.37-1.98 9.56-2.94 3.92 12.73 7.54 25.56 10.9 38.46-3.22.84-6.45 1.68-9.68 2.5A898.15 898.15 0 0 0 201.88 346zm19.79 76.53c3.26-.69 6.52-1.38 9.78-2.05a903.27 903.27 0 0 1 7.31 39.32c-3.29.52-6.58 1.06-9.86 1.59-2.14-13-4.54-25.96-7.23-38.86zm12.65 78.03c3.31-.39 6.62-.77 9.93-1.14 1.51 13.24 2.69 26.53 3.66 39.82-3.32.24-6.64.46-9.96.69-.94-13.15-2.15-26.27-3.63-39.37zm5.44 78.89c3.41-.13 6.82-.18 10.24-.14v31.73c-.1 2.72-.17 5.44-.2 8.17-3.34-.07-6.66-.14-9.99-.22.24-13.18.26-26.37-.05-39.54zm-1.72 79.06l9.97.66c-.89 13.31-2.09 26.59-3.58 39.84-3.31-.37-6.63-.75-9.94-1.12 1.47-13.1 2.65-26.23 3.55-39.38z" fill="#fff"/></svg>