<svg width="40" height="125" viewBox="0 0 400 1250" xmlns="http://www.w3.org/2000/svg"><path d="M276.88 0h1.84c6.29 11.42 12.45 22.9 18.27 34.57-2.97 1.49-5.94 2.98-8.91 4.46-5.96-11.76-12.13-23.41-18.51-34.95 2.44-1.35 4.83-2.8 7.31-4.08zm28.26 74.77c3.03-1.39 6.06-2.76 9.12-4.11 5.49 12.15 10.69 24.43 15.69 36.79-3.14 1.16-6.16 2.66-9.38 3.59-4.79-12.24-10.08-24.27-15.43-36.27zm29.6 73.41c3.12-1.13 6.25-2.23 9.38-3.34 4.59 12.51 8.56 25.23 12.65 37.91-3.14 1.01-6.32 1.95-9.44 3.01-4.13-12.54-8.13-25.14-12.59-37.58zm23.4 75.6c3.22-.85 6.44-1.71 9.66-2.55 3.4 12.88 6.55 25.84 9.41 38.86-3.24.5-6.61 1.98-9.77 1.82-2.94-12.75-5.96-25.48-9.3-38.13zm17.05 77.29c3.28-.58 6.56-1.17 9.84-1.73 2.36 13.11 4.32 26.3 6.17 39.5-3.3.45-6.6.9-9.9 1.33-1.79-13.07-3.83-26.11-6.11-39.1zm10.61 78.47c3.31-.35 6.63-.65 9.95-.94 1.2 13.27 2.22 26.56 2.9 39.87-3.33.19-6.66.36-9.99.52-.78-13.16-1.61-26.33-2.86-39.45zm4.14 79.02c3.35-.05 6.71-.08 10.06-.09v23c-.2 5.66-.24 11.33-.43 17-3.32-.09-6.65-.19-9.97-.3.33-13.2.47-26.41.34-39.61zm-5.85 118.59c1.49-13.11 2.52-26.26 3.57-39.42 3.32.22 6.64.45 9.96.7a965.45 965.45 0 0 1-3.6 39.83c-3.32-.36-6.63-.73-9.93-1.11zm-11.97 78.24c2.56-12.94 4.68-25.97 6.79-38.99 3.29.5 6.58 1 9.88 1.52-2.01 13.17-4.33 26.3-6.87 39.39-3.27-.63-6.54-1.28-9.8-1.92zm-8.41 38.7c3.25.76 6.49 1.53 9.72 2.34-3.11 12.94-6.48 25.81-10.08 38.63-3.24-.82-6.44-1.76-9.64-2.71 3.6-12.68 6.91-25.45 10-38.26zM329 807.58c4.63-12.38 8.91-24.88 13.21-37.37 3.13 1.09 6.3 2.07 9.43 3.2-4.23 12.6-8.62 25.16-13.27 37.62-3.15-1.08-6.25-2.3-9.37-3.45zm-14.74 36.76c3.09 1.24 6.15 2.58 9.23 3.88-5.18 12.28-10.69 24.42-16.37 36.48-3.02-1.41-6.03-2.84-9.02-4.27 5.61-11.93 11.06-23.94 16.16-36.09zm-33.86 71.53c2.97 1.52 5.94 3.04 8.85 4.68-6.27 11.74-12.63 23.44-19.32 34.95-2.89-1.65-5.78-3.33-8.65-5 6.65-11.39 12.89-23.01 19.12-34.63zm-61.54 101.33c7.51-10.8 14.74-21.8 21.88-32.85 2.81 1.78 5.63 3.55 8.42 5.37-7.21 11.2-14.48 22.37-22.13 33.29-2.72-1.95-5.57-3.71-8.17-5.81zm-47.85 63.24c8.33-10.25 16.56-20.58 24.56-31.1 2.64 2.03 5.32 4.01 7.95 6.06-8.08 10.59-16.32 21.06-24.8 31.35-2.57-2.1-5.12-4.23-7.71-6.31zm-52.83 58.91c9.17-9.5 18.15-19.16 27.03-28.93 2.48 2.21 4.96 4.43 7.42 6.67-8.88 9.94-18.01 19.64-27.27 29.22-2.41-2.31-4.8-4.64-7.18-6.96zm-57.45 54.42c9.92-8.69 19.67-17.56 29.26-26.61 2.31 2.41 4.61 4.82 6.87 7.28-9.71 9.11-19.52 18.14-29.59 26.87-2.18-2.52-4.41-4.99-6.54-7.54zM0 1242.55c10.26-7.59 20.36-15.39 30.33-23.35 2.1 2.56 4.18 5.16 6.24 7.78-9.77 7.91-19.8 15.51-29.88 23.02h-2.8c-1.31-1.78-2.65-3.52-3.89-5.33v-2.12z"/></svg>