<svg width="46px" height="58px" viewBox="0 0 460 580" version="1.1" xmlns="http://www.w3.org/2000/svg">
<g id="#ffffffff">
<path fill="#ffffff" opacity="1.00" d=" M 449.58 0.22 C 452.83 0.92 456.06 1.69 459.31 2.40 C 457.47 10.75 455.44 19.06 453.30 27.34 C 450.13 25.08 447.42 22.23 445.40 18.91 C 446.38 12.66 448.29 6.46 449.58 0.22 Z" />
<path fill="#ffffff" opacity="1.00" d=" M 428.60 76.40 C 431.75 77.42 434.89 78.46 438.04 79.48 C 433.98 92.18 429.48 104.73 424.74 117.19 C 421.62 116.07 418.55 114.81 415.43 113.69 C 420.03 101.34 424.47 88.92 428.60 76.40 Z" />
<path fill="#ffffff" opacity="1.00" d=" M 383.83 186.07 C 389.63 174.25 395.17 162.29 400.48 150.24 C 403.49 151.55 406.49 152.90 409.52 154.17 C 404.49 166.37 398.66 178.33 392.90 190.24 L 392.50 190.43 C 389.65 188.89 386.69 187.57 383.83 186.07 Z" />
<path fill="#ffffff" opacity="1.00" d=" M 345.50 255.19 C 352.43 243.98 359.03 232.57 365.51 221.09 C 368.38 222.75 371.33 224.27 374.18 225.96 C 367.74 237.62 361.01 249.12 353.99 260.44 C 351.15 258.70 348.32 256.95 345.50 255.19 Z" />
<path fill="#ffffff" opacity="1.00" d=" M 300.87 320.42 C 308.71 309.84 316.48 299.19 323.94 288.33 C 326.67 290.21 329.43 292.07 332.15 293.97 C 324.65 304.98 316.83 315.78 308.79 326.41 C 306.12 324.45 303.53 322.39 300.87 320.42 Z" />
<path fill="#ffffff" opacity="1.00" d=" M 250.23 381.08 C 259.09 371.34 267.79 361.45 276.23 351.35 C 278.81 353.46 281.37 355.60 283.91 357.75 C 275.35 367.95 266.63 378.02 257.60 387.82 C 255.11 385.61 252.68 383.33 250.23 381.08 Z" />
<path fill="#ffffff" opacity="1.00" d=" M 194.15 436.72 C 203.90 427.87 213.45 418.82 222.83 409.59 C 225.18 411.93 227.52 414.29 229.85 416.66 C 220.42 426.05 210.73 435.18 200.86 444.11 C 198.53 441.73 196.36 439.20 194.15 436.72 Z" />
<path fill="#ffffff" opacity="1.00" d=" M 133.04 486.84 C 143.58 478.96 153.94 470.84 164.16 462.54 C 166.30 465.09 168.41 467.66 170.48 470.26 C 160.14 478.65 149.71 486.94 138.99 494.86 C 137.00 492.19 135.00 489.53 133.04 486.84 Z" />
<path fill="#ffffff" opacity="1.00" d=" M 67.48 530.93 C 78.75 524.14 89.76 516.91 100.76 509.68 C 102.63 512.43 104.49 515.19 106.32 517.97 C 95.28 525.41 84.04 532.57 72.65 539.47 C 70.89 536.65 69.19 533.79 67.48 530.93 Z" />
<path fill="#ffffff" opacity="1.00" d=" M 24.46 555.26 C 27.37 553.73 30.24 552.12 33.17 550.61 C 34.77 553.53 36.40 556.43 37.91 559.41 C 34.16 561.42 30.41 563.43 26.63 565.39 C 26.15 561.96 25.39 558.59 24.46 555.26 Z" />
</g>
<g id="#e5e5e5e5">
<path fill="#e5e5e5" opacity="0.90" d=" M 445.15 18.54 L 445.40 18.91 C 447.42 22.23 450.13 25.08 453.30 27.34 C 452.96 29.03 452.40 30.65 452.00 32.32 C 449.35 29.59 446.56 27.00 443.75 24.43 C 444.30 22.49 444.74 20.52 445.15 18.54 Z" />
</g>
<g id="#b3b3b3b4">
<path fill="#b3b3b3" opacity="0.71" d=" M 443.75 24.43 C 446.56 27.00 449.35 29.59 452.00 32.32 C 451.93 33.81 451.03 35.18 450.88 36.67 C 448.02 34.32 445.51 31.56 442.56 29.31 C 442.91 27.67 443.23 26.02 443.75 24.43 Z" />
</g>
<g id="#81818181">
<path fill="#818181" opacity="0.51" d=" M 439.98 38.66 C 440.73 35.53 441.58 32.35 442.56 29.31 C 445.51 31.56 448.02 34.32 450.88 36.67 C 450.67 38.16 449.99 39.57 449.64 41.03 C 446.37 40.46 443.22 39.36 439.98 38.66 Z" />
</g>
<g id="#ebebebeb">
<path fill="#ebebeb" opacity="0.92" d=" M 21.45 556.81 C 22.45 556.29 23.46 555.77 24.46 555.26 C 25.39 558.59 26.15 561.96 26.63 565.39 C 25.91 565.77 24.47 566.54 23.75 566.93 C 21.87 563.88 20.95 560.38 21.45 556.81 Z" />
</g>
<g id="#c6c6c6c6">
<path fill="#c6c6c6" opacity="0.78" d=" M 15.66 559.85 C 17.66 558.97 19.45 557.68 21.45 556.81 C 20.95 560.38 21.87 563.88 23.75 566.93 C 21.79 568.06 19.64 568.81 17.69 569.97 C 17.53 566.51 16.70 563.12 15.66 559.85 Z" />
</g>
<g id="#7e7e7e7e">
<path fill="#7e7e7e" opacity="0.49" d=" M 12.19 561.67 C 13.35 561.06 14.44 560.34 15.66 559.85 C 16.70 563.12 17.53 566.51 17.69 569.97 C 16.75 570.52 15.77 570.99 14.80 571.52 C 14.15 568.18 13.54 564.80 12.19 561.67 Z" />
</g>
<g id="#22222222">
<path fill="#222222" opacity="0.13" d=" M 7.03 564.03 C 8.24 563.46 9.42 562.85 10.64 562.33 C 11.10 565.80 11.71 569.27 12.68 572.64 C 9.29 574.21 5.99 575.93 2.63 577.56 C 1.43 576.66 1.21 574.99 0.51 573.76 C 3.26 572.55 6.52 574.53 9.05 573.05 C 10.99 569.96 8.55 566.69 7.03 564.03 Z" />
</g>
<g id="#4b4b4b4c">
<path fill="#4b4b4b" opacity="0.30" d=" M 10.64 562.33 L 12.19 561.67 C 13.54 564.80 14.15 568.18 14.80 571.52 C 14.27 571.80 13.21 572.36 12.68 572.64 C 11.71 569.27 11.10 565.80 10.64 562.33 Z" />
</g>
</svg>