<svg width="25px" height="70px" viewBox="0 0 250 700" version="1.1" xmlns="http://www.w3.org/2000/svg">
<g id="#ffffffff">
<path fill="#ffffff" opacity="1.00" d=" M 3.73 7.89 C 6.15 5.60 8.56 3.31 10.97 1.01 C 20.13 10.69 29.12 20.54 37.83 30.63 C 35.32 32.81 32.81 34.99 30.29 37.16 C 21.61 27.25 12.80 17.45 3.73 7.89 Z" />
<path fill="#ffffff" opacity="1.00" d=" M 55.49 67.65 C 58.09 65.57 60.71 63.52 63.32 61.45 C 71.52 71.96 79.62 82.55 87.37 93.39 C 84.67 95.34 81.97 97.29 79.26 99.22 C 71.55 88.53 63.63 78.00 55.49 67.65 Z" />
<path fill="#ffffff" opacity="1.00" d=" M 101.56 131.87 C 104.35 130.05 107.14 128.24 109.94 126.43 C 117.19 137.62 124.22 148.95 130.95 160.47 C 128.08 162.13 125.21 163.82 122.35 165.51 C 115.65 154.16 108.73 142.93 101.56 131.87 Z" />
<path fill="#ffffff" opacity="1.00" d=" M 141.55 200.07 C 144.50 198.50 147.45 196.95 150.40 195.41 C 156.61 207.20 162.55 219.14 168.20 231.21 C 165.19 232.63 162.17 234.04 159.17 235.46 C 153.53 223.55 147.68 211.73 141.55 200.07 Z" />
<path fill="#ffffff" opacity="1.00" d=" M 175.10 271.63 C 178.18 270.36 181.26 269.08 184.34 267.82 C 189.43 280.14 194.21 292.59 198.75 305.12 C 195.62 306.24 192.49 307.37 189.36 308.51 C 184.86 296.12 180.11 283.82 175.10 271.63 Z" />
<path fill="#ffffff" opacity="1.00" d=" M 201.88 346.00 C 205.06 345.01 208.25 344.02 211.44 343.06 C 215.36 355.79 218.98 368.62 222.34 381.52 C 219.12 382.36 215.89 383.20 212.66 384.02 C 209.35 371.27 205.75 358.60 201.88 346.00 Z" />
<path fill="#ffffff" opacity="1.00" d=" M 221.67 422.53 C 224.93 421.84 228.19 421.15 231.45 420.48 C 234.18 433.53 236.61 446.64 238.76 459.80 C 235.47 460.32 232.18 460.86 228.90 461.39 C 226.76 448.39 224.36 435.43 221.67 422.53 Z" />
<path fill="#ffffff" opacity="1.00" d=" M 234.32 500.56 C 237.63 500.17 240.94 499.79 244.25 499.42 C 245.76 512.66 246.94 525.95 247.91 539.24 C 244.59 539.48 241.27 539.70 237.95 539.93 C 237.01 526.78 235.80 513.66 234.32 500.56 Z" />
<path fill="#ffffff" opacity="1.00" d=" M 239.76 579.45 C 243.17 579.32 246.58 579.27 250.00 579.31 L 250.00 611.04 C 249.90 613.76 249.83 616.48 249.80 619.21 C 246.46 619.14 243.14 619.07 239.81 618.99 C 240.05 605.81 240.07 592.62 239.76 579.45 Z" />
<path fill="#ffffff" opacity="1.00" d=" M 238.04 658.51 C 241.36 658.73 244.69 658.95 248.01 659.17 C 247.12 672.48 245.92 685.76 244.43 699.01 C 241.12 698.64 237.80 698.26 234.49 697.89 C 235.96 684.79 237.14 671.66 238.04 658.51 Z" />
</g>
</svg>