<svg width="170px" height="170px" viewBox="0 0 850 850" version="1.1" xmlns="http://www.w3.org/2000/svg">
<g id="#ffffffff">
<path fill="#ffffff" opacity="1.00" d=" M 406.17 0.00 L 443.67 0.00 C 458.20 0.63 472.59 2.79 487.04 4.36 C 500.28 5.65 513.15 9.13 526.08 12.11 C 537.04 14.81 548.11 17.25 558.69 21.29 C 565.92 24.06 573.30 26.46 580.50 29.35 C 597.45 35.03 613.03 43.91 628.94 51.90 C 639.93 57.28 649.97 64.30 660.20 70.95 C 669.43 77.26 678.85 83.28 687.50 90.39 C 702.49 103.35 718.27 115.56 731.41 130.50 C 741.07 140.86 750.91 151.09 759.44 162.43 C 770.19 177.27 781.66 191.70 790.40 207.86 C 798.77 222.34 807.24 236.85 813.47 252.41 C 820.00 267.65 826.62 282.93 830.99 298.96 C 834.95 312.22 838.80 325.53 841.49 339.12 C 844.91 358.96 848.60 378.86 849.18 399.03 C 849.63 405.43 849.78 411.84 850.00 418.25 L 850.00 437.94 C 848.80 457.71 847.77 477.58 843.90 497.06 C 840.88 513.58 837.71 530.15 832.46 546.14 C 827.98 560.71 823.33 575.29 817.16 589.25 C 810.38 604.50 803.63 619.82 795.10 634.19 C 787.24 647.44 779.35 660.72 770.23 673.15 C 760.32 686.20 750.39 699.27 739.26 711.31 C 728.19 722.87 717.06 734.42 704.99 744.95 C 695.22 753.19 685.19 761.13 675.03 768.90 C 663.17 777.58 650.64 785.31 638.04 792.86 C 624.67 801.09 610.35 807.62 596.10 814.14 C 580.90 821.36 564.86 826.56 548.85 831.65 C 533.87 836.70 518.33 839.83 502.83 842.87 C 481.77 847.26 460.24 848.66 438.81 850.00 L 411.16 850.00 C 390.01 848.65 368.74 847.33 347.94 843.02 C 326.22 839.19 304.87 833.49 284.11 826.05 C 265.37 820.09 247.69 811.38 230.01 802.90 C 214.85 795.14 200.48 785.96 186.16 776.77 C 168.19 764.37 151.09 750.65 135.12 735.75 C 133.25 734.28 132.15 731.66 133.28 729.40 C 134.51 726.37 138.88 725.43 141.19 727.80 C 154.21 739.57 167.37 751.31 181.94 761.17 C 192.67 768.87 203.50 776.45 214.97 783.01 C 229.60 790.98 244.13 799.22 259.52 805.66 C 275.98 812.23 292.37 819.17 309.58 823.58 C 323.31 827.35 337.08 831.08 351.14 833.46 C 369.98 836.23 388.86 839.36 407.95 839.40 C 419.30 840.10 430.69 840.15 442.04 839.40 C 458.95 839.33 475.74 836.98 492.42 834.37 C 510.68 832.05 528.37 826.81 546.10 822.05 C 561.79 817.45 576.89 811.13 592.01 804.99 C 607.06 798.64 621.24 790.50 635.56 782.70 C 649.60 774.70 662.55 765.01 675.76 755.74 C 686.56 747.68 696.60 738.69 706.55 729.62 C 715.75 721.50 724.39 712.74 732.41 703.46 C 742.87 691.83 753.23 680.03 761.96 667.01 C 771.29 653.77 780.62 640.44 787.97 625.96 C 795.74 611.63 803.43 597.18 809.11 581.87 C 814.19 569.13 819.21 556.35 822.93 543.15 C 827.18 526.85 831.81 510.61 834.29 493.92 C 836.71 476.03 839.52 458.11 839.53 440.02 C 840.63 419.34 839.62 398.59 837.17 378.04 C 835.60 358.34 831.05 339.06 826.58 319.86 C 820.80 298.21 813.34 276.99 804.34 256.48 C 796.36 239.56 788.26 222.62 778.02 206.93 C 769.26 192.94 760.12 179.16 749.53 166.47 C 738.47 152.66 726.76 139.33 713.85 127.21 C 700.06 113.54 685.12 101.07 669.41 89.68 C 654.13 78.07 637.57 68.31 620.82 59.00 C 582.07 38.39 540.11 23.66 496.82 16.24 C 446.07 7.36 393.66 8.02 343.14 18.10 C 338.31 18.88 333.62 20.45 328.71 20.70 C 329.51 17.16 324.62 14.27 327.61 11.13 C 338.99 8.71 350.25 5.58 361.88 4.52 C 376.63 2.85 391.33 0.67 406.17 0.00 Z" />
<path fill="#ffffff" opacity="1.00" d=" M 311.12 15.21 C 314.92 13.91 318.76 18.38 317.01 21.96 C 316.00 24.60 312.96 25.04 310.60 25.76 C 305.29 27.17 300.10 28.98 294.83 30.53 C 291.87 31.54 288.49 29.06 288.49 25.96 C 288.28 23.50 290.21 21.35 292.53 20.80 C 298.69 18.83 304.87 16.88 311.12 15.21 Z" />
<path fill="#ffffff" opacity="1.00" d=" M 263.38 31.57 C 266.85 29.62 271.43 32.97 270.61 36.85 C 270.34 39.14 268.27 40.51 266.27 41.22 C 260.65 43.48 255.16 46.07 249.61 48.49 C 247.44 49.54 244.56 48.71 243.36 46.60 C 241.72 44.23 242.78 40.66 245.39 39.50 C 251.29 36.65 257.32 34.07 263.38 31.57 Z" />
<path fill="#ffffff" opacity="1.00" d=" M 217.49 53.76 C 219.32 52.58 221.77 51.85 223.75 53.14 C 226.95 54.87 226.97 60.05 223.70 61.71 C 218.12 64.97 212.51 68.19 206.99 71.54 C 204.73 73.20 201.29 72.46 199.88 70.07 C 198.46 67.91 199.15 64.69 201.38 63.34 C 206.65 59.99 212.05 56.84 217.49 53.76 Z" />
<path fill="#ffffff" opacity="1.00" d=" M 177.39 79.45 C 180.84 77.52 185.43 81.12 184.39 84.94 C 184.03 87.30 181.73 88.43 180.05 89.78 C 175.51 92.97 171.23 96.50 166.78 99.81 C 164.13 102.13 159.52 100.43 158.88 97.01 C 158.26 94.75 159.63 92.57 161.44 91.34 C 166.68 87.28 171.85 83.10 177.39 79.45 Z" />
<path fill="#ffffff" opacity="1.00" d=" M 139.39 110.49 C 142.46 109.13 146.23 111.69 146.22 115.01 C 146.39 117.79 143.85 119.44 142.12 121.18 C 137.87 124.93 134.05 129.14 129.81 132.90 C 127.16 135.07 122.74 133.30 122.10 129.99 C 121.18 126.33 124.79 124.16 126.89 121.86 C 131.04 118.06 134.76 113.69 139.39 110.49 Z" />
<path fill="#ffffff" opacity="1.00" d=" M 103.72 146.73 C 106.51 144.18 111.43 146.26 111.79 149.93 C 112.25 152.92 109.59 154.89 107.98 156.99 C 104.13 161.20 101.01 166.05 96.98 170.08 C 93.07 172.95 87.47 168.01 89.75 163.79 C 94.07 157.85 98.78 152.16 103.72 146.73 Z" />
<path fill="#ffffff" opacity="1.00" d=" M 75.09 185.15 C 79.12 183.38 83.52 188.37 81.21 192.12 C 77.35 198.04 73.65 204.10 69.68 209.95 C 66.40 213.82 59.55 209.71 61.38 204.99 C 64.09 199.69 67.66 194.87 70.82 189.83 C 72.04 188.13 72.98 185.92 75.09 185.15 Z" />
<path fill="#ffffff" opacity="1.00" d=" M 48.36 228.51 C 51.87 225.12 58.21 229.37 56.30 233.89 C 54.03 238.99 51.27 243.86 49.03 248.97 C 47.89 251.27 47.00 254.37 44.11 254.97 C 40.32 256.03 36.56 251.64 38.41 248.08 C 41.57 241.50 44.31 234.57 48.36 228.51 Z" />
<path fill="#ffffff" opacity="1.00" d=" M 29.12 273.11 C 32.41 271.02 37.02 274.06 36.57 277.89 C 35.02 283.34 32.71 288.55 31.06 293.98 C 30.14 296.46 29.76 299.80 26.87 300.80 C 23.31 302.41 18.97 298.55 20.31 294.84 C 21.99 289.13 24.08 283.54 26.06 277.93 C 26.76 276.17 27.28 274.03 29.12 273.11 Z" />
<path fill="#ffffff" opacity="1.00" d=" M 14.33 320.45 C 16.68 318.82 20.25 319.82 21.47 322.38 C 22.59 324.43 21.58 326.75 21.20 328.86 C 19.75 334.40 18.82 340.07 17.45 345.63 C 16.42 349.31 11.01 350.12 8.83 347.04 C 7.35 345.30 7.83 342.91 8.28 340.88 C 9.47 335.21 10.65 329.53 12.08 323.91 C 12.36 322.52 13.09 321.19 14.33 320.45 Z" />
<path fill="#ffffff" opacity="1.00" d=" M 6.49 368.54 C 9.84 367.18 13.77 370.43 13.07 373.98 C 12.28 380.63 11.77 387.31 11.04 393.96 C 10.34 399.19 1.91 399.09 1.29 393.84 C 1.35 387.22 2.35 380.62 3.01 374.04 C 3.03 371.74 4.15 369.26 6.49 368.54 Z" />
<path fill="#ffffff" opacity="1.00" d=" M 0.00 421.65 C 0.75 418.38 4.71 416.35 7.63 418.30 C 10.70 420.08 9.89 424.02 10.04 426.98 C 9.80 432.69 10.70 438.43 10.05 444.11 C 8.65 448.39 1.79 448.30 0.61 443.89 C 0.00 439.24 0.24 434.53 0.00 429.86 L 0.00 421.65 Z" />
<path fill="#ffffff" opacity="1.00" d=" M 5.36 467.44 C 8.17 465.87 12.07 467.83 12.49 471.01 C 13.35 477.32 14.05 483.66 15.07 489.95 C 15.78 492.47 14.44 495.40 11.89 496.23 C 9.04 497.32 5.61 495.20 5.32 492.17 C 4.27 485.77 3.42 479.33 2.70 472.89 C 2.27 470.72 3.37 468.40 5.36 467.44 Z" />
<path fill="#ffffff" opacity="1.00" d=" M 13.30 516.35 C 16.21 514.34 20.52 516.45 20.92 519.91 C 22.40 526.65 24.58 533.24 25.91 540.01 C 25.84 544.68 19.01 546.49 16.68 542.42 C 14.33 535.84 12.89 528.94 11.20 522.17 C 10.47 520.02 11.38 517.52 13.30 516.35 Z" />
<path fill="#ffffff" opacity="1.00" d=" M 27.49 563.61 C 29.96 562.07 33.63 563.32 34.58 566.09 C 36.87 572.10 39.14 578.12 41.59 584.07 C 42.76 586.33 41.97 589.38 39.73 590.66 C 37.31 592.17 33.75 591.12 32.65 588.46 C 30.06 582.36 27.68 576.18 25.41 569.95 C 24.36 567.69 25.32 564.81 27.49 563.61 Z" />
<path fill="#ffffff" opacity="1.00" d=" M 46.38 609.45 C 48.71 607.36 52.80 608.29 54.01 611.16 C 57.01 616.97 60.11 622.72 63.21 628.47 C 65.04 631.51 62.52 635.79 59.00 635.74 C 56.90 635.92 55.07 634.49 54.18 632.69 C 51.06 627.14 48.05 621.52 45.21 615.81 C 43.94 613.76 44.50 610.92 46.38 609.45 Z" />
<path fill="#ffffff" opacity="1.00" d=" M 72.36 651.47 C 74.54 650.44 77.23 651.40 78.47 653.41 C 82.08 658.82 85.86 664.11 89.60 669.44 C 91.41 671.76 90.45 675.45 87.84 676.73 C 85.53 678.03 82.50 677.00 81.18 674.78 C 77.39 669.56 73.64 664.30 70.17 658.86 C 68.32 656.43 69.48 652.49 72.36 651.47 Z" />
<path fill="#ffffff" opacity="1.00" d=" M 101.32 691.31 C 103.58 689.85 106.62 690.81 108.10 692.92 C 112.32 698.04 117.00 702.78 121.21 707.91 C 124.09 712.03 118.45 717.58 114.35 714.69 C 109.15 709.83 104.71 704.18 100.03 698.81 C 97.97 696.60 98.71 692.73 101.32 691.31 Z" />
</g>
<g id="#b5b5b530">
<path fill="#b5b5b5" opacity="0.19" d=" M 323.23 12.33 C 324.68 11.89 326.12 11.39 327.61 11.13 C 324.62 14.27 329.51 17.16 328.71 20.70 C 327.62 20.65 326.53 20.59 325.45 20.51 C 325.50 19.82 325.59 18.45 325.63 17.76 C 324.94 16.91 324.25 16.05 323.57 15.20 C 323.46 14.24 323.35 13.28 323.23 12.33 Z" />
</g>
</svg>