<svg width="40px" height="125px" viewBox="0 0 400 1250" version="1.1" xmlns="http://www.w3.org/2000/svg">
<g id="#000000ff">
<path fill="#000000" opacity="1.00" d=" M 276.88 0.00 L 278.72 0.00 C 285.01 11.42 291.17 22.90 296.99 34.57 C 294.02 36.06 291.05 37.55 288.08 39.03 C 282.12 27.27 275.95 15.62 269.57 4.08 C 272.01 2.73 274.40 1.28 276.88 0.00 Z" />
<path fill="#000000" opacity="1.00" d=" M 305.14 74.77 C 308.17 73.38 311.20 72.01 314.26 70.66 C 319.75 82.81 324.95 95.09 329.95 107.45 C 326.81 108.61 323.79 110.11 320.57 111.04 C 315.78 98.80 310.49 86.77 305.14 74.77 Z" />
<path fill="#000000" opacity="1.00" d=" M 334.74 148.18 C 337.86 147.05 340.99 145.95 344.12 144.84 C 348.71 157.35 352.68 170.07 356.77 182.75 C 353.63 183.76 350.45 184.70 347.33 185.76 C 343.20 173.22 339.20 160.62 334.74 148.18 Z" />
<path fill="#000000" opacity="1.00" d=" M 358.14 223.78 C 361.36 222.93 364.58 222.07 367.80 221.23 C 371.20 234.11 374.35 247.07 377.21 260.09 C 373.97 260.59 370.60 262.07 367.44 261.91 C 364.50 249.16 361.48 236.43 358.14 223.78 Z" />
<path fill="#000000" opacity="1.00" d=" M 375.19 301.07 C 378.47 300.49 381.75 299.90 385.03 299.34 C 387.39 312.45 389.35 325.64 391.20 338.84 C 387.90 339.29 384.60 339.74 381.30 340.17 C 379.51 327.10 377.47 314.06 375.19 301.07 Z" />
<path fill="#000000" opacity="1.00" d=" M 385.80 379.54 C 389.11 379.19 392.43 378.89 395.75 378.60 C 396.95 391.87 397.97 405.16 398.65 418.47 C 395.32 418.66 391.99 418.83 388.66 418.99 C 387.88 405.83 387.05 392.66 385.80 379.54 Z" />
<path fill="#000000" opacity="1.00" d=" M 389.94 458.56 C 393.29 458.51 396.65 458.48 400.00 458.47 L 400.00 481.47 C 399.80 487.13 399.76 492.80 399.57 498.47 C 396.25 498.38 392.92 498.28 389.60 498.17 C 389.93 484.97 390.07 471.76 389.94 458.56 Z" />
<path fill="#000000" opacity="1.00" d=" M 384.09 577.15 C 385.58 564.04 386.61 550.89 387.66 537.73 C 390.98 537.95 394.30 538.18 397.62 538.43 C 396.70 551.73 395.49 565.01 394.02 578.26 C 390.70 577.90 387.39 577.53 384.09 577.15 Z" />
<path fill="#000000" opacity="1.00" d=" M 372.12 655.39 C 374.68 642.45 376.80 629.42 378.91 616.40 C 382.20 616.90 385.49 617.40 388.79 617.92 C 386.78 631.09 384.46 644.22 381.92 657.31 C 378.65 656.68 375.38 656.03 372.12 655.39 Z" />
<path fill="#000000" opacity="1.00" d=" M 363.71 694.09 C 366.96 694.85 370.20 695.62 373.43 696.43 C 370.32 709.37 366.95 722.24 363.35 735.06 C 360.11 734.24 356.91 733.30 353.71 732.35 C 357.31 719.67 360.62 706.90 363.71 694.09 Z" />
<path fill="#000000" opacity="1.00" d=" M 329.00 807.58 C 333.63 795.20 337.91 782.70 342.21 770.21 C 345.34 771.30 348.51 772.28 351.64 773.41 C 347.41 786.01 343.02 798.57 338.37 811.03 C 335.22 809.95 332.12 808.73 329.00 807.58 Z" />
<path fill="#000000" opacity="1.00" d=" M 314.26 844.34 C 317.35 845.58 320.41 846.92 323.49 848.22 C 318.31 860.50 312.80 872.64 307.12 884.70 C 304.10 883.29 301.09 881.86 298.10 880.43 C 303.71 868.50 309.16 856.49 314.26 844.34 Z" />
<path fill="#000000" opacity="1.00" d=" M 280.40 915.87 C 283.37 917.39 286.34 918.91 289.25 920.55 C 282.98 932.29 276.62 943.99 269.93 955.50 C 267.04 953.85 264.15 952.17 261.28 950.50 C 267.93 939.11 274.17 927.49 280.40 915.87 Z" />
<path fill="#000000" opacity="1.00" d=" M 218.86 1017.20 C 226.37 1006.40 233.60 995.40 240.74 984.35 C 243.55 986.13 246.37 987.90 249.16 989.72 C 241.95 1000.92 234.68 1012.09 227.03 1023.01 C 224.31 1021.06 221.46 1019.30 218.86 1017.20 Z" />
<path fill="#000000" opacity="1.00" d=" M 171.01 1080.44 C 179.34 1070.19 187.57 1059.86 195.57 1049.34 C 198.21 1051.37 200.89 1053.35 203.52 1055.40 C 195.44 1065.99 187.20 1076.46 178.72 1086.75 C 176.15 1084.65 173.60 1082.52 171.01 1080.44 Z" />
<path fill="#000000" opacity="1.00" d=" M 118.18 1139.35 C 127.35 1129.85 136.33 1120.19 145.21 1110.42 C 147.69 1112.63 150.17 1114.85 152.63 1117.09 C 143.75 1127.03 134.62 1136.73 125.36 1146.31 C 122.95 1144.00 120.56 1141.67 118.18 1139.35 Z" />
<path fill="#000000" opacity="1.00" d=" M 60.73 1193.77 C 70.65 1185.08 80.40 1176.21 89.99 1167.16 C 92.30 1169.57 94.60 1171.98 96.86 1174.44 C 87.15 1183.55 77.34 1192.58 67.27 1201.31 C 65.09 1198.79 62.86 1196.32 60.73 1193.77 Z" />
<path fill="#000000" opacity="1.00" d=" M 0.00 1242.55 C 10.26 1234.96 20.36 1227.16 30.33 1219.20 C 32.43 1221.76 34.51 1224.36 36.57 1226.98 C 26.80 1234.89 16.77 1242.49 6.69 1250.00 L 3.89 1250.00 C 2.58 1248.22 1.24 1246.48 0.00 1244.67 L 0.00 1242.55 Z" />
</g>
</svg>
